<svg xmlns="http://www.w3.org/2000/svg" viewBox="0 0 640 420" width="640" height="420" role="img" aria-label="Миньон летит на ракете">
  <defs>
    <linearGradient id="s3" x1="0" y1="0" x2="0" y2="1">
      <stop offset="0" stop-color="#FFE45C"/><stop offset=".6" stop-color="#F5C518"/><stop offset="1" stop-color="#D9A50C"/>
    </linearGradient>
    <linearGradient id="d3" x1="0" y1="0" x2="0" y2="1">
      <stop offset="0" stop-color="#3C78D8"/><stop offset="1" stop-color="#1E4C9C"/>
    </linearGradient>
    <linearGradient id="m3" x1="0" y1="0" x2="0" y2="1">
      <stop offset="0" stop-color="#F2F4F6"/><stop offset="1" stop-color="#5C646C"/>
    </linearGradient>
    <linearGradient id="sky" x1="0" y1="0" x2="0" y2="1">
      <stop offset="0" stop-color="#FFFFFF"/><stop offset="1" stop-color="#E8E8E4"/>
    </linearGradient>
  </defs>

  <rect width="640" height="420" fill="url(#sky)"/>
  <g fill="#FFFFFF" stroke="#DCDCD8" stroke-width="3">
    <ellipse cx="90" cy="70" rx="46" ry="20"/>
    <ellipse cx="130" cy="62" rx="34" ry="16"/>
    <ellipse cx="560" cy="120" rx="52" ry="22"/>
    <ellipse cx="600" cy="112" rx="30" ry="14"/>
  </g>

  <!-- ракета -->
  <g>
    <path d="M320 300 q-60 0-84-56 q-18-42 20-96 q26-38 64-52 q38 14 64 52 q38 54 20 96 q-24 56-84 56 z" fill="#E8EAED" stroke="#1A1C1F" stroke-width="7"/>
    <path d="M320 96 q-38 14-64 52 q-30 48-16 84 q40 22 80 22 q40 0 80-22 q14-36-16-84 q-26-38-64-52 z" fill="#F7F8F9" stroke="#1A1C1F" stroke-width="7"/>
    <path d="M320 96 a52 52 0 0 1 52 52 h-104 a52 52 0 0 1 52-52 z" fill="#D6402F" stroke="#1A1C1F" stroke-width="7"/>
    <circle cx="320" cy="150" r="26" fill="url(#m3)" stroke="#1A1C1F" stroke-width="6"/>
    <circle cx="320" cy="150" r="17" fill="#BFE3F5" stroke="#2C3238" stroke-width="4"/>
    <path d="M250 200 q-40 10-52 44 q22 16 48 18 z" fill="#D6402F" stroke="#1A1C1F" stroke-width="6"/>
    <path d="M390 200 q40 10 52 44 q-22 16-48 18 z" fill="#D6402F" stroke="#1A1C1F" stroke-width="6"/>
    <!-- пламя -->
    <path d="M292 300 q28 46 56 0 q-8 44-28 44 q-20 0-28-44 z" fill="#F5A623" stroke="#1A1C1F" stroke-width="5"/>
    <path d="M302 300 q18 26 36 0 q-6 24-18 24 q-12 0-18-24 z" fill="#F5C518"/>
  </g>

  <!-- миньон в иллюминаторе -->
  <g>
    <path d="M296 176 h48 v40 a14 14 0 0 1-14 14 h-20 a14 14 0 0 1-14-14 z" fill="url(#s3)" stroke="#1A1C1F" stroke-width="5"/>
    <path d="M296 200 h48 v16 a14 14 0 0 1-14 14 h-20 a14 14 0 0 1-14-14 z" fill="url(#d3)" stroke="#1A1C1F" stroke-width="5"/>
    <ellipse cx="320" cy="152" rx="34" ry="24" fill="url(#s3)" stroke="#1A1C1F" stroke-width="5"/>
    <g fill="#1A1C1F"><path d="M304 132 q3-14 11-10 q1 8 3 12 z"/><path d="M318 128 q4-14 12-8 q0 8 1 12 z"/></g>
    <path d="M286 148 q34-10 68 0 v8 q-34-10-68 0 z" fill="#4A5158" stroke="#1A1C1F" stroke-width="4"/>
    <circle cx="308" cy="156" r="11" fill="url(#m3)" stroke="#1A1C1F" stroke-width="4"/>
    <circle cx="308" cy="156" r="7" fill="#fff" stroke="#2C3238" stroke-width="3"/>
    <circle cx="309" cy="157" r="3" fill="#15181B"/>
    <circle cx="332" cy="156" r="11" fill="url(#m3)" stroke="#1A1C1F" stroke-width="4"/>
    <circle cx="332" cy="156" r="7" fill="#fff" stroke="#2C3238" stroke-width="3"/>
    <circle cx="331" cy="157" r="3" fill="#15181B"/>
    <path d="M310 172 q10 8 20 0 q-4 8-10 8 q-6 0-10-8 z" fill="#2A1A12" stroke="#1A1C1F" stroke-width="3"/>
  </g>

  <!-- звёзды -->
  <g fill="#050607">
    <path d="M120 200 l8 18 20 2-15 13 4 20-17-10-17 10 4-20-15-13 20-2z"/>
    <path d="M520 230 l6 13 15 2-11 10 3 15-13-7-13 7 3-15-11-10 15-2z"/>
    <path d="M200 120 l5 11 12 1-9 8 2 12-10-6-11 6 3-12-9-8 12-1z"/>
  </g>

  <g>
    <rect x="24" y="24" width="228" height="34" fill="#050607"/>
    <text x="40" y="47" font-family="monospace" font-size="17" fill="#fff" letter-spacing="3">ПОЛЁТ К БАЗЕ</text>
  </g>
</svg>
